<svg xmlns="http://www.w3.org/2000/svg"  viewBox="0 0 512 512" width="48px" height="48px"><path d="M458.9,162.1c-25.2-40.4-65.9-71.6-108.7-91.6C306.9,50.4,257.4,41,209.9,49.2C128.1,63.4,50,123.9,27.1,204.9c-3.3,5.5-3.8,13.1-5.2,19.2c-1,4.3-1.7,8.7-2.3,13.1c-0.1,0.4-0.1,0.9-0.2,1.3c-0.1,0.3-0.2,0.5-0.2,0.8c-0.8,4.2-1.5,8.4-2.1,12.6c0,0.1-0.1,0.1-0.1,0.2c-0.5,1.2-0.6,2.3-0.4,3.2c-1,8.1-1.7,16.2-2.3,24.3c-0.8,11.4-0.9,22.9-0.3,34.3c1.3,22.3,5.6,44.5,13.3,65.5c15.3,41.8,45.5,76.5,86.1,95.3c23.1,10.6,48.8,16.7,73.9,20c25.5,3.3,51.5,3.1,77-0.6c50.9-7.4,98.5-29.7,136.1-64.8c36.4-33.9,65-77.6,78.1-125.8C491.7,255.5,485.4,204.6,458.9,162.1z M367.6,443.4c-42.4,29.8-94.1,43.8-145.6,43.7c-26.1-0.1-52.1-4.2-77.1-11.5c-22.9-6.7-44.2-16.8-62.4-32.3c-26.5-22.5-43.3-54-52-87.3c-4.6-17.5-6.6-35.6-6.9-53.7c-0.2-9.2,0.2-18.4,1.1-27.6c0.4-4.4,0.8-8.8,1.3-13.2c0-0.2,0-0.5,0-0.7c0.3-2.1,0.6-4.2,0.8-6.3c2.7-7.3,2.4-15.4,3.8-23c0.8-4.1,1.8-8.2,2.7-12.3c0.2-0.8,0.3-1.7,0.4-2.7c0.4-1,0.9-2.1,1.4-3.1c0.4-1.4,0.7-2.9,1.1-4.3c0.5-0.9,0.8-1.8,0.7-2.6C59.5,128.8,136,71,214.9,58.5C262.8,51,312.2,62.4,355,84c42.6,21.5,82.8,55.7,104.2,99C505.2,276.5,446.1,388.2,367.6,443.4z"/><path fill="#14B6B9" d="M459.2,183.1c-21.3-43.4-61.6-77.5-104.2-99C312.2,62.4,262.8,51,214.9,58.5C136,71,59.5,128.8,37,206.4c0,0.9-0.2,1.7-0.7,2.6c-0.4,1.4-0.8,2.9-1.1,4.3c-0.5,1-1,2-1.4,3.1c-0.1,0.9-0.3,1.9-0.4,2.7c-0.9,4.1-2,8.2-2.7,12.3c-1.4,7.7-1.1,15.7-3.8,23c-0.2,2.1-0.5,4.2-0.8,6.3c0,0.3,0,0.5,0,0.7c-0.5,4.4-0.9,8.8-1.3,13.2c-0.8,9.2-1.2,18.4-1.1,27.6c0.3,18.1,2.4,36.2,6.9,53.7c8.7,33.3,25.5,64.8,52,87.3c18.2,15.5,39.5,25.7,62.4,32.3c25,7.3,51,11.4,77.1,11.5c51.5,0.1,103.2-13.9,145.6-43.7C446.1,388.2,505.2,276.5,459.2,183.1z M374,392.9c-10.3,16.4-28.9,22.8-46.5,25.5c-25,3.9-50.1-0.8-75.2,0.8c-27.1,1.8-55.2,4.7-81-6.7c-20.9-9.2-38.2-26.2-47.4-48.3c-11.6-28-11-59.4-10.7-89.4c0.3-32,1.7-64,2.8-96c-0.6-0.4-1.2-1-1.7-1.6c0-4.2-0.1-8.4-0.2-12.6c1-11.1,2.2-21.9,8.4-31.6c4.7-7.4,12-13.3,20.2-15.7c17.2-5.1,36.3,0.6,49.9,12.6c19.6,17.3,23.5,43.1,21.1,68.8c-0.1,1.3-0.3,2.5-0.4,3.7c3.2,2,6.7,3.6,10.7,4.5c22.7,5.4,45.5-3.6,68.1-5.6c17.8-1.6,38.8,0.3,53.3,12.6c14.4,12.2,19.9,37,9.3,54c-10.3,16.4-28.9,22.8-46.5,25.5c-25,3.9-50.1-0.8-75.2,0.8c-6.8,0.4-13.7,0.9-20.6,1.3c4.6,16.9,13.6,32.2,30.9,36.3c22.7,5.4,45.5-3.6,68.1-5.6c17.8-1.6,38.8,0.3,53.3,12.6C379.2,351.2,384.6,375.9,374,392.9z"/><path fill="#D6E5E5" d="M367.7,364.9c-3.8-19.8-24.7-26.5-41.4-27.2c-21.7-0.9-42.6,6.9-64.2,7.6c-11.4,0.4-23.5-0.8-33.6-6.8c-10.3-6.1-17.4-15.6-22.3-27c-1.7-4.1-3.2-8.3-4.4-12.6c0.4-3.1,1-6.5,2.2-9.5v-0.7c0.1-0.1,0.2-0.2,0.3-0.4c0.2-0.2,0.3-0.4,0.5-0.6c0.6-1.2,1.4-2.2,2.3-3.1h0.4c0.1-0.1,0.2-0.2,0.2-0.3c0.6,0,1.2,0,1.8-0.1c8.1-0.4,16.4-1.7,24.5-1.6c7.7,0,15.4,0.2,23.1,0.5c21.1,0.7,43.4,2.3,63.9-4.4c7.9-2.6,16.1-6.2,21.6-13c5.8-7.2,7.5-16.5,5.7-25.7c-3.8-19.8-24.7-26.5-41.4-27.2c-21.7-0.9-42.6,6.9-64.2,7.6c-11.4,0.4-23.5-0.8-33.6-6.8c-0.5-0.3-1-0.6-1.5-1h-1.3c-0.4-0.5-0.8-1-1.3-1.5c0-0.1-0.1-0.3-0.1-0.4c-0.3-0.3-0.7-0.5-1-0.8v-2.7c-0.5-1.9-0.9-3.8-1.1-5.7c1.6-13.8,1.9-27.5-2.5-40.3c-6.6-19.3-25.3-34.8-45.2-34.1c-8.2,0.3-16.3,3.1-21.6,10c-6.5,8.3-7.6,18.5-8.5,28.8c0,0,0.1,0.1,0.1,0.1c-3,16.2-0.9,33.8,0.6,50.2c-0.7,19.9-1.3,39.7-1.5,59.6c-0.3,29.1-1.6,62.1,12,88.5c10.8,21.1,29.6,36.2,51.6,41.7c13.4,3.4,27.3,3.8,41.1,3.1c8.1-0.4,16.4-1.7,24.5-1.6c7.7,0,15.4,0.2,23.1,0.5c21.1,0.7,43.4,2.3,63.9-4.4c7.9-2.6,16.1-6.2,21.6-13C367.8,383.4,369.5,374.1,367.7,364.9z"/><path d="M364.7,338.9c-14.5-12.3-35.5-14.2-53.3-12.6c-22.6,2-45.3,11-68.1,5.6c-17.3-4.1-26.3-19.4-30.9-36.3c6.9-0.3,13.8-0.9,20.6-1.3c25.1-1.6,50.2,3.1,75.2-0.8c17.6-2.7,36.2-9.1,46.5-25.5c10.6-17,5.2-41.7-9.3-54c-14.5-12.3-35.5-14.2-53.3-12.6c-22.6,2-45.3,11-68.1,5.6c-4-0.9-7.5-2.5-10.7-4.5c0.1-1.2,0.3-2.5,0.4-3.7c2.4-25.7-1.5-51.4-21.1-68.8c-13.6-12-32.7-17.8-49.9-12.6c-8.2,2.4-15.4,8.3-20.2,15.7c-6.1,9.6-7.4,20.5-8.4,31.6c0.1,4.2,0.2,8.4,0.2,12.6c0.5,0.7,1,1.2,1.7,1.6c-1.1,32-2.5,64-2.8,96c-0.3,30-0.9,61.3,10.7,89.4c9.1,22.1,26.5,39.1,47.4,48.3c25.8,11.3,53.8,8.4,81,6.7c25.1-1.6,50.2,3.1,75.2-0.8c17.6-2.7,36.2-9.1,46.5-25.5C384.6,375.9,379.2,351.2,364.7,338.9z M362,390.5c-5.5,6.8-13.8,10.4-21.6,13c-20.5,6.7-42.7,5.1-63.9,4.4c-7.7-0.2-15.4-0.5-23.1-0.5c-8.1,0-16.4,1.2-24.5,1.6c-13.8,0.8-27.6,0.3-41.1-3.1c-22-5.5-40.8-20.6-51.6-41.7c-13.6-26.4-12.3-59.4-12-88.5c0.2-19.9,0.8-39.7,1.5-59.6c-1.5-16.4-3.6-34-0.6-50.2c0,0-0.1-0.1-0.1-0.1c0.8-10.3,2-20.6,8.5-28.8c5.4-6.9,13.5-9.7,21.6-10c19.9-0.7,38.6,14.7,45.2,34.1c4.4,12.8,4.1,26.5,2.5,40.3c0.3,1.9,0.7,3.8,1.1,5.7v2.7c0.3,0.3,0.7,0.5,1,0.8c0,0.1,0.1,0.3,0.1,0.4c0.4,0.5,0.9,1,1.3,1.5h1.3c0.5,0.3,1,0.7,1.5,1c10.1,6,22.3,7.2,33.6,6.8c21.6-0.7,42.5-8.5,64.2-7.6c16.7,0.7,37.6,7.4,41.4,27.2c1.8,9.2,0.1,18.5-5.7,25.7c-5.5,6.8-13.8,10.4-21.6,13c-20.5,6.7-42.7,5.1-63.9,4.4c-7.7-0.2-15.4-0.5-23.1-0.5c-8.1,0-16.4,1.2-24.5,1.6c-0.6,0-1.2,0-1.8,0.1c-0.1,0.1-0.2,0.2-0.2,0.3h-0.4c-0.9,0.9-1.7,2-2.3,3.1c-0.2,0.2-0.3,0.4-0.5,0.6c-0.1,0.1-0.2,0.2-0.3,0.4v0.7c-1.2,3-1.8,6.4-2.2,9.5c1.2,4.3,2.6,8.5,4.4,12.6c4.8,11.4,12,20.8,22.3,27c10.1,6,22.3,7.2,33.6,6.8c21.6-0.7,42.5-8.5,64.2-7.6c16.7,0.7,37.6,7.4,41.4,27.2C369.5,374.1,367.8,383.4,362,390.5z"/></svg>