<?xml version="1.0" encoding="UTF-8"?><svg id="Layer_1" xmlns="http://www.w3.org/2000/svg" viewBox="0 0 278.31 57.32"><path d="M15.17,1.08c1.63,.92,1.7,4.57-.53,4.61-1.17,.05-1.44-1.64-2.64-1.56-6.95,2.87,.29,18.64-8.48,21.36C11.96,29.14-.06,43.4,6.58,47.42c1.24,.08,1.79-1.58,3-1.56,3.45,1.53-.42,6.03-3.4,5.38-8.44-2.27-2.31-15.13-2.59-21.29,.38-2.53-3.09-2.25-3.33-4.24,.23-2.71,4.14-1.8,4.53-4.68C6.53,14.42,4.14-3.1,15.17,1.08Z" fill="#fff" stroke="#231f20" stroke-miterlimit="10" stroke-width=".5"/><path d="M47.46,7.15c2.94,5.6-4.44,3.65-7.65,3.63-1.18,7.36-2.07,17.14-2.72,24.92-.56,3.92,.6,9.68-3.74,7.3-1.31-2.93,.71-7.12,.74-10.23,.8-5.78,2.22-20.54,2.29-22-2.36-.11-9.3,1.12-6.75-3.54,2.76-1.37,5.29,.04,8.84-.35,2.75,.31,6.34-.9,9,.29Z" fill="#fff" stroke="#231f20" stroke-miterlimit="10" stroke-width=".5"/><path d="M62.95,17.37c1.36,1.92-.38,5.47-.24,7.97-.71,5.34-1.09,18.19-2.96,24.37-1.16,9.19-13.5,10.11-14.47,.9-.14-2.56,2.72-3.3,3.5-.48,.88,2.45,2.16,3.67,3.85,3.67,6.52-2.34,5.36-12.02,6.23-18.35-1.25,6.27-8.65,12.57-11.73,4.61-1.7-6.17,.84-14.52,.71-21.11-.15-1.72,2.05-2.85,3.2-1.56,1.03,1.85,.2,2.21-.19,5.93-.36,3.86-2.33,12.35-.77,15.81,2.79,3.35,6.06-1.79,7.3-4.71,1.59-3.81,2.04-5.62,2.22-10.63,.34-3.3-.64-8.48,3.36-6.41Z" fill="#fff" stroke="#231f20" stroke-miterlimit="10" stroke-width=".5"/><path d="M81.49,17.99c7.27,6.57-1.19,35.48-11.45,22.51-.98,6.21,.12,9.52-1.46,14.24-2.11,1.59-3.74-.84-2.84-3.19,1.67-8.39,2.43-27.19,3.19-34.09,3.61-2.62,3,4.07,2.72,6.08,1.59-4.37,5.7-9.33,9.84-5.55Zm-3.79,20.61c10.82-21.91-6.17-25.61-7.4-.93,.4-.19,.84,.07,1.03,.46,1.36,2.98,4.39,3.23,6.38,.47Z" fill="#fff" stroke="#231f20" stroke-miterlimit="10" stroke-width=".5"/><path d="M101.33,35.98c1.72,9.25-15.43,11.98-14.44-2.01,.11-6.4,2.65-16.64,10-17.31,11.35,2.6,3.9,17.73-6.8,16.83-.42,4.13,1.99,9.39,6.23,6.19,1.4-.49,2.65-6.08,5.01-3.69Zm-7.55-14.24c-1.93,2.2-2.96,5.67-3.42,8.73,11.01-.04,11.47-14.47,3.42-8.73Z" fill="#fff" stroke="#231f20" stroke-miterlimit="10" stroke-width=".5"/><path d="M125.42,7.31c1.55,2.13-.09,4.87-2.94,3.94-3.45-.48-6.17-.31-9.34-.37-.6,3.96-.87,6.39-1.31,10.74,2.88,.86,13.53-2.57,10.59,3.93-.9,.99-1.43,.63-3.03,.48-2.58-.5-5.51-.36-7.99-.37-.74,7.21-1.2,11.86-1.38,13.95,3.73,.71,9.02-1.27,12.43,.29,.99,1.32,.49,4.1-1.57,3.93-3.01-1.13-15.06,1.66-14.59-2.31,1.36-11.13,2.22-18.99,3.3-30.61-1.96,.05-2.59-2.28-1.56-3.65,1.25-1.14,1.58-.43,3.98-.53,5.35,.74,8.78-1.09,13.42,.56Z" fill="#fff" stroke="#231f20" stroke-miterlimit="10" stroke-width=".5"/><path d="M140.29,17.29c2.7,7.35-5.99-1.17-9.08,14.54-.94,6.49-.02,8.29-1.3,11.21-1.14,1.27-3.31,.36-3.16-1.41,1.47-7.01,1.98-17.31,2.52-24.15,3.78-2.43,3.06,4.05,2.78,6.75,1.47-3.7,4.35-9.27,8.24-6.93Z" fill="#fff" stroke="#231f20" stroke-miterlimit="10" stroke-width=".5"/><path d="M155.88,17.29c2.7,7.36-5.99-1.17-9.08,14.54-1.23,5.92,1.02,13.69-3.97,11.23-.96-6.63,2.81-17.04,1.61-23.91-.32-1.99,2.16-3.23,3.05-1.32,.64,1.8,.35,3.88,.15,6.39,1.47-3.7,4.35-9.27,8.24-6.93Z" fill="#fff" stroke="#231f20" stroke-miterlimit="10" stroke-width=".5"/><path d="M160.28,42.63c-7.24-5.25-1.43-31.95,9.31-24.36,6.41,6.84,3.63,30.62-9.31,24.36Zm8.94-18.3c-5.31-13.68-11.27,9.93-8.08,14.64,7.14,6.52,9.91-9.72,8.08-14.64Z" fill="#fff" stroke="#231f20" stroke-miterlimit="10" stroke-width=".5"/><path d="M189.47,17.29c2.7,7.36-5.99-1.17-9.08,14.54-1.23,5.92,1.02,13.69-3.97,11.23-.96-6.63,2.81-17.04,1.61-23.91-.32-1.99,2.16-3.23,3.05-1.32,.64,1.8,.35,3.88,.15,6.39,1.47-3.7,4.35-9.27,8.24-6.93Z" fill="#fff" stroke="#231f20" stroke-miterlimit="10" stroke-width=".5"/><path d="M208.69,9.96c6.93,7.81,3.54,24.31-4.21,30.91-3.77,3.78-13.35,5.39-11.47-2.49,1.04-8.53,1.93-17.53,2.77-27.45-1.19,.17-2.04-.59-1.99-1.82,1.4-6.21,12.78-1.81,14.89,.86Zm-5.8,27.52c7.52-6.13,10.41-28.2-3.81-26.86-.86,9.45-1.91,20.02-2.73,29.58,2.42-.1,4.6-1.01,6.54-2.71Z" fill="#fff" stroke="#231f20" stroke-miterlimit="10" stroke-width=".5"/><path d="M229.66,35.98c1.73,9.25-15.43,11.98-14.44-2.01,.11-6.4,2.65-16.64,9.99-17.31,11.35,2.6,3.9,17.73-6.8,16.83-.42,4.13,1.99,9.39,6.23,6.19,1.4-.49,2.65-6.08,5.01-3.69Zm-7.55-14.24c-1.92,2.2-2.96,5.67-3.42,8.73,11.01-.04,11.47-14.47,3.42-8.73Z" fill="#fff" stroke="#231f20" stroke-miterlimit="10" stroke-width=".5"/><path d="M237.2,40.15c-1.57-2.02-5.31-31.51,1.38-21.36-.72,6.32-.7,13.76,.98,19.6,2.89,8.07,7.81-16.07,7.56-19,9.25-15.91-2.73,39.76-9.93,20.76Z" fill="#fff" stroke="#231f20" stroke-miterlimit="10" stroke-width=".5"/><path d="M275.04,22.42c.45,1.02,1.92,1.35,2.64,2.04,1.48,2.1-1.75,2.98-3,3.67-3.84,5.7-.72,14.92-4.5,20.48-1.46,3.55-7.99,3.66-8.25-.46-.11-1.45,.96-2.88,2.38-2.14,8.54,7.03,2.11-19.84,10.44-20.42-8.45-2.49,4.36-20.83-3.86-21.29-.86,.59-2.17,2.22-3.13,.84-2.16-4.34,5.98-6.95,7.67-2.74,3.05,5.96-1.38,13.81-.38,20.03Z" fill="#fff" stroke="#231f20" stroke-miterlimit="10" stroke-width=".5"/></svg>